<svg enable-background="new 0 0 32.6 31.8" viewBox="0 0 32.6 31.8" xmlns="http://www.w3.org/2000/svg"><path d="m16.3.1c-9 0-16.3 7.2-16.3 16.2 0 7 4.5 13.3 11.2 15.5.8.1 1.1-.4 1.1-.8s0-1.4 0-2.8c-4.5 1-5.5-2.2-5.5-2.2-.3-1-.9-1.8-1.8-2.4-1.5-1 .1-1 .1-1 1 .1 2 .8 2.5 1.7.9 1.7 3 2.3 4.7 1.4.1-.8.4-1.6 1-2.2-3.6-.4-7.4-1.8-7.4-8.1 0-1.6.6-3.2 1.7-4.4-.5-1.3-.5-2.8.1-4.2 0 0 1.4-.4 4.5 1.7 2.7-.7 5.5-.7 8.2 0 3.1-2.1 4.5-1.7 4.5-1.7.6 1.4.7 2.9.2 4.3 1.1 1.2 1.7 2.8 1.7 4.4 0 6.3-3.8 7.6-7.4 8 .8.8 1.2 1.9 1.1 3v4.5s.3.9 1.1.8c8.5-2.9 13.1-12.1 10.3-20.6-2.4-6.7-8.6-11.2-15.6-11.1z"/></svg>