<svg id="Layer_1" data-name="Layer 1" xmlns="http://www.w3.org/2000/svg" viewBox="0 0 469.09 469.09">
  <defs>
    <style>
      .cls-1{fill:#231f20}
    </style>
  </defs>
  <path class="cls-1" d="M249.55 15C120 15 15 120 15 249.55s105 234.54 234.55 234.54 234.55-105 234.55-234.55S379.09 15 249.55 15zm0 430.58c-108.09 0-196-87.94-196-196s87.94-196 196-196 196 87.94 196 196-87.91 196-196 196z" transform="translate(-15 -15)"/>
  <path class="cls-1" d="M394.46 203.74c0-.18-.07-.36-.1-.54-.06-.35-.13-.7-.22-1s-.13-.4-.19-.6-.2-.61-.32-.91-.18-.41-.28-.61-.27-.56-.42-.82-.24-.39-.35-.58-.34-.51-.53-.76l-.43-.54c-.2-.23-.4-.46-.62-.67s-.32-.34-.5-.49-.46-.4-.7-.59l-.56-.43-.24-.2-132.54-88.38a12.46 12.46 0 0 0-13.83 0L110.07 195l-.21.15c-.19.14-.38.28-.56.43s-.48.39-.71.59-.34.32-.5.49-.42.44-.62.67-.29.36-.43.54-.36.5-.52.76-.24.38-.36.58-.29.54-.42.82-.19.4-.28.61-.22.6-.32.91-.14.4-.19.6-.15.69-.22 1c0 .18-.08.36-.1.54a12 12 0 0 0-.11 1.63v88.37a12.25 12.25 0 0 0 .11 1.63c0 .18.07.36.1.53.06.35.13.7.22 1s.13.4.19.6.2.61.32.92.18.41.28.6.27.56.42.83l.36.57c.16.26.34.51.52.76s.28.37.43.54.4.46.62.67.32.34.5.49.46.41.71.6.37.29.56.43l.21.15 132.56 88.38a12.44 12.44 0 0 0 13.83 0L389 304.1l.21-.15c.19-.14.38-.28.56-.43s.48-.39.7-.6.33-.32.5-.49.42-.44.62-.67.29-.35.43-.54.36-.5.53-.76l.35-.57c.16-.28.29-.55.42-.83s.19-.4.28-.6.22-.61.32-.92.14-.4.19-.6.16-.69.22-1c0-.17.08-.36.1-.53a13 13 0 0 0 .11-1.63v-88.42a12.77 12.77 0 0 0-.08-1.62zM262 140.28l97.65 65.1L316 234.56l-54-36.15zm-24.93 0v58.13l-54 36.15-43.62-29.18zm-107.62 88.41l31.18 20.86-31.18 20.86zm107.63 130.13l-97.65-65.1 43.62-29.17 54 36.14zM249.55 279l-44.08-29.49 44.08-29.49 44.08 29.49zM262 358.82v-58.13l54-36.14 43.62 29.17zm107.63-88.41l-31.18-20.86 31.18-20.86z" transform="translate(-15 -15)"/>
</svg>
