<svg id="Layer_1" data-name="Layer 1" xmlns="http://www.w3.org/2000/svg" viewBox="0 0 23.46 18">
  <defs>
    <style>
      .cls-1{fill:#231f20}
    </style>
  </defs>
  <path class="cls-1" d="M16.67 0H1.33A1.31 1.31 0 0 0 0 1.3v15.4A1.31 1.31 0 0 0 1.33 18h15.34A1.32 1.32 0 0 0 18 16.7V1.3A1.32 1.32 0 0 0 16.67 0zM5.34 15.34H2.67V6.75h2.67zM4 5.57A1.55 1.55 0 1 1 5.55 4 1.55 1.55 0 0 1 4 5.57zm11.33 9.76h-2.66v-4.17c0-1 0-2.28-1.39-2.28s-1.6 1.12-1.6 2.21v4.25H7V6.75h2.57v1.17a2.8 2.8 0 0 1 2.53-1.39c2.7 0 3.2 1.78 3.2 4.09zM21.66 13.88a.57.57 0 0 0 .58-.61c0-.43-.26-.64-.79-.64h-.86v2.25h.32v-1h.41l.62 1h.34l-.66-1zm-.37-.22h-.37v-.76h.47c.25 0 .53 0 .53.36s-.29.4-.63.4z"/>
  <path class="cls-1" d="M21.33 11.64a2.13 2.13 0 1 0 2.13 2.13 2.11 2.11 0 0 0-2.13-2.13zm0 4a1.85 1.85 0 1 1 1.82-1.85 1.81 1.81 0 0 1-1.82 1.83z"/>
</svg>
