<svg id="point" enable-background="new 0 0 300 300" height="512" viewBox="0 0 300 300" width="512" xmlns="http://www.w3.org/2000/svg"><path d="m211.968 122c-4.505 0-8.653 1.515-12 4.038v-.038c0-11.028-8.972-20-20-20-4.656 0-8.935 1.613-12.337 4.291-1.691-9.249-9.856-16.291-19.663-16.291-4.505 0-8.653 1.502-12 4.004v-44.004c0-11.028-8.972-20-20-20s-20 8.972-20 20v80.003c-8.878.028-17.014 4.115-22.334 11.228-5.339 7.137-6.958 16.135-4.441 24.685l3.336 11.334c3.782 12.847 8.779 25.41 14.854 37.341l6.24 12.256c11.039 21.683 33.012 35.153 57.344 35.153h30.912c27.62 0 50.09-22.47 50.09-50.09v-29.91-32-12c-.001-11.028-8.973-20-20.001-20zm12 93.91c0 23.208-18.881 42.09-42.09 42.09h-30.912c-21.307 0-40.548-11.795-50.215-30.783l-6.24-12.256c-5.852-11.493-10.666-23.595-14.308-35.97l-3.336-11.334c-1.798-6.108-.642-12.536 3.172-17.634 3.795-5.074 9.597-7.992 15.928-8.02v20.334c0 2.209 1.791 4 4 4s4-1.791 4-4v-108.337c0-6.617 5.383-12 12-12s12 5.383 12 12v59.832 48.337c0 2.209 1.791 4 4 4s4-1.791 4-4v-48.337c0-6.524 5.383-11.832 12-11.832s12 5.308 12 11.832v48.168.168c0 2.209 1.791 4 4 4s4-1.791 4-4v-.168-36c0-6.617 5.383-12 12-12s12 5.383 12 12v52c0 2.209 1.791 4 4 4s4-1.791 4-4v-36c0-6.617 5.383-12 12-12s12 5.383 12 12v12 61.91z"/></svg>