<svg id="two-fingers-rotate-right" enable-background="new 0 0 300 300" height="512" viewBox="0 0 300 300" width="512" xmlns="http://www.w3.org/2000/svg"><path d="m208.051 195.439c-3.7-8.582-13.69-12.619-22.269-8.999-7.357 3.106-16.702 7.042-23.697 9.986l43.416-85.142c1.963-3.85 2.31-8.233.976-12.343s-4.188-7.454-8.038-9.417-8.233-2.312-12.343-.976c-4.11 1.333-7.455 4.188-9.417 8.037l-17.254 33.836c-1.476-2.283-3.54-4.227-6.132-5.549-4.409-2.248-9.382-2.246-13.604-.423-.059-.208-.102-.417-.169-.623-1.341-4.133-4.211-7.495-8.081-9.468-3.87-1.975-8.278-2.325-12.409-.98-4.132 1.341-7.495 4.211-9.468 8.08l-.556 1.091c-1.481-2.247-3.514-4.091-5.976-5.346-7.736-3.946-17.243-.861-21.191 6.877l-40.537 79.496c-3.276 6.426-3.862 13.739-1.65 20.594 2.214 6.859 6.966 12.438 13.378 15.708l37 18.868c5.727 2.92 11.949 4.375 18.166 4.375 6.75 0 13.493-1.716 19.578-5.135l73.269-41.158c7.449-4.185 10.515-13.257 7.132-21.104zm-10.927 14.415-73.269 41.158c-9.351 5.253-20.638 5.48-30.191.607l-37.001-18.868c-4.504-2.297-7.842-6.217-9.399-11.038-1.558-4.826-1.145-9.977 1.164-14.502l40.537-79.496c1.942-3.808 6.621-5.325 10.43-3.385 1.845.94 3.213 2.543 3.852 4.513.639 1.969.474 4.068-.466 5.912l-11.751 23.045c-1.003 1.969-.222 4.377 1.747 5.381.582.297 1.202.438 1.813.438 1.456 0 2.86-.798 3.567-2.184l11.748-23.039c0-.001.001-.001.001-.002.001-.001.001-.002.002-.004l6.78-13.296c1.002-1.967 2.711-3.425 4.811-4.105 2.099-.684 4.338-.505 6.306.498 1.966 1.003 3.425 2.711 4.106 4.811.679 2.094.505 4.327-.491 6.289l-17.833 34.898c-1.005 1.968-.225 4.377 1.742 5.382.583.298 1.205.439 1.817.439 1.455 0 2.858-.797 3.565-2.181l17.825-34.881c.001-.003.003-.005.005-.007.003-.005.004-.01.007-.015l.375-.735c.969-1.899 2.619-3.309 4.647-3.967 2.027-.656 4.191-.486 6.091.482 1.899.969 3.308 2.618 3.966 4.646s.487 4.191-.481 6.091v.001l-18.178 35.649c-1.003 1.969-.222 4.377 1.747 5.381 1.968 1.004 4.377.222 5.38-1.746l41.713-81.802c.992-1.946 2.683-3.389 4.76-4.063 2.077-.673 4.293-.498 6.239.494s3.389 2.683 4.062 4.76c.674 2.077.499 4.293-.493 6.238l-48.387 94.89c-.763 1.496-.51 3.31.633 4.54s2.933 1.616 4.481.965c0 0 20.257-8.521 33.792-14.233 4.545-1.92 9.844.233 11.812 4.798l.123.284c1.756 4.073.163 8.785-3.706 10.959z"/><path d="m259.853 139.18c-1.85-1.207-4.329-.685-5.536 1.163l-.028.043c-1.329-57.301-48.353-103.507-105.968-103.507-2.209 0-4 1.791-4 4s1.791 4 4 4c53.312 0 96.813 42.791 97.972 95.829l-.376-.684c-1.064-1.936-3.495-2.64-5.432-1.579-1.936 1.064-2.643 3.496-1.579 5.433l7.146 13.001c.677 1.231 1.95 2.018 3.354 2.07.051.002.101.003.152.003 1.347 0 2.609-.68 3.349-1.813l8.109-12.423c1.208-1.85.687-4.328-1.163-5.536zm-10.206 7.631c.137.023.279.033.42.042l-.216.33z"/></svg>